# xmcd
#
# Track frame offsets:
#	150
#	19762
#	38951
#	56574
#	80316
#	99615
#	116419
#	132184
#	150521
#	167632
#	188772
#	200501
#	216327
#
# Disc length: 3240 seconds
#
# Revision: 1
# Processed by: cddbd v1.5.2PL0 Copyright (c) Steve Scherf et al.
# Submitted via: audiograbber 1.83.01
#
DISCID=a90ca60d
DTITLE=Nacho Sanabria - Su Estilo Y Sus Hijos
DYEAR=2006
DGENRE=Salsa
TTITLE0=La Ruñidera
TTITLE1=Mulato Rumbero
TTITLE2=Romance Guajiro
TTITLE3=Sanson Batalla
TTITLE4=Trompo De Juguete
TTITLE5=Consuelate Como Yo
TTITLE6=Mambo Batiri
TTITLE7=Eso Se Hincha
TTITLE8=Oro Que Brilla
TTITLE9=Rumba Pa Los Rumberos
TTITLE10=Sin Cariño Y Sin Dinero
TTITLE11=Alma Primitiva
TTITLE12=Rumba Moderna
EXTD=
EXTT0=
EXTT1=
EXTT2=
EXTT3=
EXTT4=
EXTT5=
EXTT6=
EXTT7=
EXTT8=
EXTT9=
EXTT10=
EXTT11=
EXTT12=
PLAYORDER=
